<mxfile host="app.diagrams.net" modified="2024-07-23T12:15:56.632Z" agent="Mozilla/5.0 (X11; Ubuntu; Linux x86_64; rv:128.0) Gecko/20100101 Firefox/128.0" etag="BrWGtb0wgThJ-YZzmK12" version="24.6.5" type="device">
  <diagram name="Page-1" id="gP-pUgqHU1g9608ZTCEj">
    <mxGraphModel dx="1364" dy="795" grid="1" gridSize="10" guides="1" tooltips="1" connect="1" arrows="1" fold="1" page="1" pageScale="1" pageWidth="827" pageHeight="1169" math="0" shadow="0">
      <root>
        <mxCell id="0" />
        <mxCell id="1" parent="0" />
        <mxCell id="t60yFk4SmAPFyCl0LOFS-2" value="" style="rounded=0;whiteSpace=wrap;html=1;fillColor=none;strokeWidth=2;" vertex="1" parent="1">
          <mxGeometry x="180" y="180" width="65" height="160" as="geometry" />
        </mxCell>
        <mxCell id="t60yFk4SmAPFyCl0LOFS-8" value="" style="rounded=0;whiteSpace=wrap;html=1;strokeWidth=2;" vertex="1" parent="1">
          <mxGeometry x="185" y="265" width="55" height="75" as="geometry" />
        </mxCell>
        <mxCell id="t60yFk4SmAPFyCl0LOFS-9" value="" style="rounded=0;whiteSpace=wrap;html=1;fillColor=#aadd96;strokeWidth=2;" vertex="1" parent="1">
          <mxGeometry x="185" y="300" width="55" height="40" as="geometry" />
        </mxCell>
        <mxCell id="t60yFk4SmAPFyCl0LOFS-49" value="" style="endArrow=none;html=1;rounded=0;strokeWidth=2;strokeColor=#e01b24;exitX=0.023;exitY=0.184;exitDx=0;exitDy=0;exitPerimeter=0;" edge="1" parent="1">
          <mxGeometry width="50" height="50" relative="1" as="geometry">
            <mxPoint x="180.495" y="209.44000000000005" as="sourcePoint" />
            <mxPoint x="244" y="210.36" as="targetPoint" />
          </mxGeometry>
        </mxCell>
        <mxCell id="t60yFk4SmAPFyCl0LOFS-56" value="&lt;font style=&quot;font-size: 14px;&quot;&gt;Before&lt;/font&gt;" style="text;html=1;align=center;verticalAlign=middle;resizable=0;points=[];autosize=1;strokeColor=none;fillColor=none;container=0;" vertex="1" parent="1">
          <mxGeometry x="150" y="352.5" width="60" height="30" as="geometry" />
        </mxCell>
        <mxCell id="t60yFk4SmAPFyCl0LOFS-77" value="&lt;div style=&quot;font-size: 13px;&quot;&gt;&lt;font style=&quot;font-size: 14px;&quot;&gt;Overcommit&lt;/font&gt;&lt;/div&gt;" style="text;html=1;align=center;verticalAlign=middle;resizable=0;points=[];autosize=1;strokeColor=none;fillColor=none;container=0;" vertex="1" parent="1">
          <mxGeometry x="478" y="352.5" width="100" height="30" as="geometry" />
        </mxCell>
        <mxCell id="t60yFk4SmAPFyCl0LOFS-91" value="&lt;font style=&quot;font-size: 14px;&quot;&gt;No Overcommit&lt;br&gt;&lt;/font&gt;" style="text;html=1;align=center;verticalAlign=middle;resizable=0;points=[];autosize=1;strokeColor=none;fillColor=none;" vertex="1" parent="1">
          <mxGeometry x="280.5" y="352.5" width="120" height="30" as="geometry" />
        </mxCell>
        <mxCell id="t60yFk4SmAPFyCl0LOFS-104" value="" style="group" vertex="1" connectable="0" parent="1">
          <mxGeometry x="98" y="162.5" width="89" height="190" as="geometry" />
        </mxCell>
        <mxCell id="t60yFk4SmAPFyCl0LOFS-54" value="" style="shape=image;html=1;verticalAlign=top;verticalLabelPosition=bottom;labelBackgroundColor=#ffffff;imageAspect=0;aspect=fixed;image=https://cdn2.iconfinder.com/data/icons/essential-web-5/50/point-left-arrow-curve-back-128.png;rotation=-180;flipV=1;flipH=0;container=0;" vertex="1" parent="t60yFk4SmAPFyCl0LOFS-104">
          <mxGeometry x="57" y="72" width="25" height="25" as="geometry" />
        </mxCell>
        <mxCell id="t60yFk4SmAPFyCl0LOFS-15" value="" style="rounded=0;whiteSpace=wrap;html=1;strokeWidth=2;container=0;" vertex="1" parent="t60yFk4SmAPFyCl0LOFS-104">
          <mxGeometry width="55" height="45" as="geometry" />
        </mxCell>
        <mxCell id="t60yFk4SmAPFyCl0LOFS-11" value="" style="rounded=0;whiteSpace=wrap;html=1;fillColor=#efe8ad;strokeColor=default;fontColor=#ffffff;gradientColor=none;strokeWidth=2;container=0;" vertex="1" parent="t60yFk4SmAPFyCl0LOFS-104">
          <mxGeometry y="10" width="55" height="35" as="geometry" />
        </mxCell>
        <mxCell id="t60yFk4SmAPFyCl0LOFS-33" value="" style="rounded=0;whiteSpace=wrap;html=1;fillColor=none;strokeWidth=2;container=0;" vertex="1" parent="t60yFk4SmAPFyCl0LOFS-104">
          <mxGeometry y="50" width="55" height="60" as="geometry" />
        </mxCell>
        <mxCell id="t60yFk4SmAPFyCl0LOFS-34" value="" style="rounded=0;whiteSpace=wrap;html=1;fillColor=#cc2d30;strokeColor=default;strokeWidth=2;container=0;" vertex="1" parent="t60yFk4SmAPFyCl0LOFS-104">
          <mxGeometry y="70" width="55" height="40" as="geometry" />
        </mxCell>
        <mxCell id="t60yFk4SmAPFyCl0LOFS-41" value="" style="rounded=0;whiteSpace=wrap;html=1;strokeWidth=2;container=0;" vertex="1" parent="t60yFk4SmAPFyCl0LOFS-104">
          <mxGeometry y="115" width="55" height="75" as="geometry" />
        </mxCell>
        <mxCell id="t60yFk4SmAPFyCl0LOFS-42" value="" style="rounded=0;whiteSpace=wrap;html=1;fillColor=#aadd96;strokeWidth=2;container=0;" vertex="1" parent="t60yFk4SmAPFyCl0LOFS-104">
          <mxGeometry y="150" width="55" height="40" as="geometry" />
        </mxCell>
        <mxCell id="t60yFk4SmAPFyCl0LOFS-109" value="" style="group" vertex="1" connectable="0" parent="1">
          <mxGeometry x="430" y="180" width="148" height="160" as="geometry" />
        </mxCell>
        <mxCell id="t60yFk4SmAPFyCl0LOFS-58" value="" style="rounded=0;whiteSpace=wrap;html=1;strokeWidth=2;container=0;" vertex="1" parent="t60yFk4SmAPFyCl0LOFS-109">
          <mxGeometry x="88" y="85" width="55" height="75" as="geometry" />
        </mxCell>
        <mxCell id="t60yFk4SmAPFyCl0LOFS-59" value="" style="rounded=0;whiteSpace=wrap;html=1;fillColor=#aadd96;strokeWidth=2;container=0;" vertex="1" parent="t60yFk4SmAPFyCl0LOFS-109">
          <mxGeometry x="88" y="120" width="55" height="40" as="geometry" />
        </mxCell>
        <mxCell id="t60yFk4SmAPFyCl0LOFS-39" value="" style="rounded=0;whiteSpace=wrap;html=1;strokeWidth=2;container=0;" vertex="1" parent="t60yFk4SmAPFyCl0LOFS-109">
          <mxGeometry x="88" y="40" width="55" height="75" as="geometry" />
        </mxCell>
        <mxCell id="t60yFk4SmAPFyCl0LOFS-40" value="" style="rounded=0;whiteSpace=wrap;html=1;fillColor=#aadd96;strokeWidth=2;container=0;" vertex="1" parent="t60yFk4SmAPFyCl0LOFS-109">
          <mxGeometry x="88" y="80" width="55" height="40" as="geometry" />
        </mxCell>
        <mxCell id="t60yFk4SmAPFyCl0LOFS-57" value="" style="rounded=0;whiteSpace=wrap;html=1;fillColor=none;strokeWidth=2;container=0;" vertex="1" parent="t60yFk4SmAPFyCl0LOFS-109">
          <mxGeometry x="83" width="65" height="160" as="geometry" />
        </mxCell>
        <mxCell id="t60yFk4SmAPFyCl0LOFS-99" value="" style="group" vertex="1" connectable="0" parent="t60yFk4SmAPFyCl0LOFS-109">
          <mxGeometry x="88" y="20" width="55" height="60" as="geometry" />
        </mxCell>
        <mxCell id="t60yFk4SmAPFyCl0LOFS-96" value="" style="rounded=0;whiteSpace=wrap;html=1;fillColor=none;strokeWidth=2;" vertex="1" parent="t60yFk4SmAPFyCl0LOFS-99">
          <mxGeometry width="55" height="60" as="geometry" />
        </mxCell>
        <mxCell id="t60yFk4SmAPFyCl0LOFS-97" value="" style="rounded=0;whiteSpace=wrap;html=1;fillColor=#cc2d30;strokeColor=default;strokeWidth=2;" vertex="1" parent="t60yFk4SmAPFyCl0LOFS-99">
          <mxGeometry y="20" width="55" height="40" as="geometry" />
        </mxCell>
        <mxCell id="t60yFk4SmAPFyCl0LOFS-100" value="" style="endArrow=none;html=1;rounded=0;strokeWidth=2;strokeColor=#e01b24;exitX=0.023;exitY=0.184;exitDx=0;exitDy=0;exitPerimeter=0;" edge="1" parent="t60yFk4SmAPFyCl0LOFS-99">
          <mxGeometry width="50" height="50" relative="1" as="geometry">
            <mxPoint x="-4.2549999999999955" y="10.000000000000057" as="sourcePoint" />
            <mxPoint x="59.25" y="10.920000000000016" as="targetPoint" />
          </mxGeometry>
        </mxCell>
        <mxCell id="t60yFk4SmAPFyCl0LOFS-108" value="" style="group" vertex="1" connectable="0" parent="t60yFk4SmAPFyCl0LOFS-109">
          <mxGeometry y="62.5" width="82" height="45" as="geometry" />
        </mxCell>
        <mxCell id="t60yFk4SmAPFyCl0LOFS-76" value="" style="shape=image;html=1;verticalAlign=top;verticalLabelPosition=bottom;labelBackgroundColor=#ffffff;imageAspect=0;aspect=fixed;image=https://cdn2.iconfinder.com/data/icons/essential-web-5/50/point-left-arrow-curve-back-128.png;rotation=-180;flipV=1;flipH=0;container=0;" vertex="1" parent="t60yFk4SmAPFyCl0LOFS-108">
          <mxGeometry x="57" y="2.5" width="25" height="25" as="geometry" />
        </mxCell>
        <mxCell id="t60yFk4SmAPFyCl0LOFS-107" value="" style="group" vertex="1" connectable="0" parent="t60yFk4SmAPFyCl0LOFS-108">
          <mxGeometry width="55" height="45" as="geometry" />
        </mxCell>
        <mxCell id="t60yFk4SmAPFyCl0LOFS-70" value="" style="rounded=0;whiteSpace=wrap;html=1;strokeWidth=2;container=0;" vertex="1" parent="t60yFk4SmAPFyCl0LOFS-107">
          <mxGeometry width="55" height="45" as="geometry" />
        </mxCell>
        <mxCell id="t60yFk4SmAPFyCl0LOFS-71" value="" style="rounded=0;whiteSpace=wrap;html=1;fillColor=#efe8ad;strokeColor=default;fontColor=#ffffff;gradientColor=none;strokeWidth=2;container=0;" vertex="1" parent="t60yFk4SmAPFyCl0LOFS-107">
          <mxGeometry y="10" width="55" height="35" as="geometry" />
        </mxCell>
        <mxCell id="t60yFk4SmAPFyCl0LOFS-110" value="" style="group" vertex="1" connectable="0" parent="1">
          <mxGeometry x="267" y="177.5" width="147" height="160" as="geometry" />
        </mxCell>
        <mxCell id="t60yFk4SmAPFyCl0LOFS-81" value="" style="endArrow=none;html=1;rounded=0;strokeWidth=2;strokeColor=#e01b24;" edge="1" parent="t60yFk4SmAPFyCl0LOFS-110">
          <mxGeometry width="50" height="50" relative="1" as="geometry">
            <mxPoint x="82" y="29.75" as="sourcePoint" />
            <mxPoint x="146" y="29.75" as="targetPoint" />
          </mxGeometry>
        </mxCell>
        <mxCell id="t60yFk4SmAPFyCl0LOFS-78" value="" style="rounded=0;whiteSpace=wrap;html=1;fillColor=none;strokeWidth=2;" vertex="1" parent="t60yFk4SmAPFyCl0LOFS-110">
          <mxGeometry x="82" width="65" height="160" as="geometry" />
        </mxCell>
        <mxCell id="t60yFk4SmAPFyCl0LOFS-79" value="" style="rounded=0;whiteSpace=wrap;html=1;strokeWidth=2;" vertex="1" parent="t60yFk4SmAPFyCl0LOFS-110">
          <mxGeometry x="87" y="85" width="55" height="75" as="geometry" />
        </mxCell>
        <mxCell id="t60yFk4SmAPFyCl0LOFS-80" value="" style="rounded=0;whiteSpace=wrap;html=1;fillColor=#aadd96;strokeWidth=2;" vertex="1" parent="t60yFk4SmAPFyCl0LOFS-110">
          <mxGeometry x="87" y="120" width="55" height="40" as="geometry" />
        </mxCell>
        <mxCell id="t60yFk4SmAPFyCl0LOFS-84" value="" style="rounded=0;whiteSpace=wrap;html=1;strokeWidth=2;" vertex="1" parent="t60yFk4SmAPFyCl0LOFS-110">
          <mxGeometry x="87" y="40" width="55" height="45" as="geometry" />
        </mxCell>
        <mxCell id="t60yFk4SmAPFyCl0LOFS-85" value="" style="rounded=0;whiteSpace=wrap;html=1;fillColor=#efe8ad;strokeColor=default;fontColor=#ffffff;gradientColor=none;strokeWidth=2;" vertex="1" parent="t60yFk4SmAPFyCl0LOFS-110">
          <mxGeometry x="87" y="50" width="55" height="35" as="geometry" />
        </mxCell>
        <mxCell id="t60yFk4SmAPFyCl0LOFS-106" value="" style="group" vertex="1" connectable="0" parent="t60yFk4SmAPFyCl0LOFS-110">
          <mxGeometry y="15" width="89" height="140" as="geometry" />
        </mxCell>
        <mxCell id="t60yFk4SmAPFyCl0LOFS-90" value="" style="shape=image;html=1;verticalAlign=top;verticalLabelPosition=bottom;labelBackgroundColor=#ffffff;imageAspect=0;aspect=fixed;image=https://cdn2.iconfinder.com/data/icons/essential-web-5/50/point-left-arrow-curve-back-128.png;rotation=-180;flipV=1;flipH=0;" vertex="1" parent="t60yFk4SmAPFyCl0LOFS-106">
          <mxGeometry x="57" y="34" width="25" height="25" as="geometry" />
        </mxCell>
        <mxCell id="t60yFk4SmAPFyCl0LOFS-86" value="" style="rounded=0;whiteSpace=wrap;html=1;fillColor=none;strokeWidth=2;" vertex="1" parent="t60yFk4SmAPFyCl0LOFS-106">
          <mxGeometry width="55" height="60" as="geometry" />
        </mxCell>
        <mxCell id="t60yFk4SmAPFyCl0LOFS-87" value="" style="rounded=0;whiteSpace=wrap;html=1;fillColor=#cc2d30;strokeColor=default;strokeWidth=2;" vertex="1" parent="t60yFk4SmAPFyCl0LOFS-106">
          <mxGeometry y="20" width="55" height="40" as="geometry" />
        </mxCell>
        <mxCell id="t60yFk4SmAPFyCl0LOFS-88" value="" style="rounded=0;whiteSpace=wrap;html=1;strokeWidth=2;" vertex="1" parent="t60yFk4SmAPFyCl0LOFS-106">
          <mxGeometry y="65" width="55" height="75" as="geometry" />
        </mxCell>
        <mxCell id="t60yFk4SmAPFyCl0LOFS-89" value="" style="rounded=0;whiteSpace=wrap;html=1;fillColor=#aadd96;strokeWidth=2;" vertex="1" parent="t60yFk4SmAPFyCl0LOFS-106">
          <mxGeometry y="100" width="55" height="40" as="geometry" />
        </mxCell>
        <mxCell id="t60yFk4SmAPFyCl0LOFS-113" value="" style="endArrow=none;html=1;rounded=0;curved=1;strokeWidth=2;endFill=0;dashed=1;" edge="1" parent="1">
          <mxGeometry width="50" height="50" relative="1" as="geometry">
            <mxPoint x="97" y="400" as="sourcePoint" />
            <mxPoint x="587" y="400" as="targetPoint" />
          </mxGeometry>
        </mxCell>
        <mxCell id="t60yFk4SmAPFyCl0LOFS-115" value="" style="endArrow=none;html=1;rounded=0;curved=1;strokeWidth=2;" edge="1" parent="1">
          <mxGeometry width="50" height="50" relative="1" as="geometry">
            <mxPoint x="96" y="397" as="sourcePoint" />
            <mxPoint x="96" y="387" as="targetPoint" />
          </mxGeometry>
        </mxCell>
        <mxCell id="t60yFk4SmAPFyCl0LOFS-116" value="" style="endArrow=none;html=1;rounded=0;curved=1;strokeWidth=2;" edge="1" parent="1">
          <mxGeometry width="50" height="50" relative="1" as="geometry">
            <mxPoint x="256" y="398" as="sourcePoint" />
            <mxPoint x="256" y="388" as="targetPoint" />
          </mxGeometry>
        </mxCell>
        <mxCell id="t60yFk4SmAPFyCl0LOFS-117" value="" style="endArrow=none;html=1;rounded=0;curved=1;strokeWidth=2;" edge="1" parent="1">
          <mxGeometry width="50" height="50" relative="1" as="geometry">
            <mxPoint x="584" y="398.5" as="sourcePoint" />
            <mxPoint x="584" y="388.5" as="targetPoint" />
          </mxGeometry>
        </mxCell>
        <mxCell id="t60yFk4SmAPFyCl0LOFS-119" value="&lt;font style=&quot;font-size: 14px;&quot;&gt;t-1&lt;/font&gt;" style="text;html=1;align=center;verticalAlign=middle;resizable=0;points=[];autosize=1;strokeColor=none;fillColor=none;" vertex="1" parent="1">
          <mxGeometry x="160" y="399" width="40" height="30" as="geometry" />
        </mxCell>
        <mxCell id="t60yFk4SmAPFyCl0LOFS-120" value="&lt;font style=&quot;font-size: 14px;&quot;&gt;t&lt;/font&gt;" style="text;html=1;align=center;verticalAlign=middle;resizable=0;points=[];autosize=1;strokeColor=none;fillColor=none;" vertex="1" parent="1">
          <mxGeometry x="399" y="399" width="30" height="30" as="geometry" />
        </mxCell>
      </root>
    </mxGraphModel>
  </diagram>
</mxfile>
